<svg width="765" height="800" viewBox="0 0 765 800" fill="none" xmlns="http://www.w3.org/2000/svg">
<g clip-path="url(#clip0)">
<path d="M475.481 578.071C635.106 578.071 764.508 448.665 764.508 289.035C764.508 129.406 635.106 0 475.481 0C315.856 0 186.454 129.406 186.454 289.035C186.454 448.665 315.856 578.071 475.481 578.071Z" fill="#5E080F" fill-opacity="0.56"/>
<path opacity="0.05" d="M475.481 527.643C607.257 527.643 714.082 420.815 714.082 289.035C714.082 157.256 607.257 50.4275 475.481 50.4275C343.705 50.4275 236.88 157.256 236.88 289.035C236.88 420.815 343.705 527.643 475.481 527.643Z" fill="black"/>
<path opacity="0.05" d="M475.481 484.596C583.483 484.596 671.036 397.04 671.036 289.035C671.036 181.031 583.483 93.4753 475.481 93.4753C367.479 93.4753 279.927 181.031 279.927 289.035C279.927 397.04 367.479 484.596 475.481 484.596Z" fill="black"/>
<path opacity="0.05" d="M475.481 429.248C552.916 429.248 615.69 366.473 615.69 289.035C615.69 211.598 552.916 148.823 475.481 148.823C398.046 148.823 335.272 211.598 335.272 289.035C335.272 366.473 398.046 429.248 475.481 429.248Z" fill="black"/>
<path opacity="0.05" d="M475.997 389C531.224 389 575.994 344.228 575.994 289C575.994 233.772 531.224 189 475.997 189C420.77 189 376 233.772 376 289C376 344.228 420.77 389 475.997 389Z" fill="black"/>
<path opacity="0.05" d="M474.998 349C508.134 349 534.997 322.137 534.997 289C534.997 255.863 508.134 229 474.998 229C441.862 229 415 255.863 415 289C415 322.137 441.862 349 474.998 349Z" fill="black"/>
<path d="M452.8 300H439.52L438.48 298.2C440.053 295.213 441.987 291.267 444.28 286.36C446.573 281.427 448.627 276.907 450.44 272.8H451.48L454.68 274.52L443.88 295.32L442.28 297.76L452.8 297.2L452.96 289.4L456.36 289.12V297L462 296.72V300H456.36V306.44H452.8V300ZM475.422 300.36C472.009 300.36 469.449 299.187 467.742 296.84C466.062 294.467 465.222 291.413 465.222 287.68C465.222 285.067 465.702 282.787 466.662 280.84C467.622 278.867 468.929 277.36 470.582 276.32C472.236 275.28 474.049 274.76 476.022 274.76C479.489 274.76 482.022 275.88 483.622 278.12C485.222 280.333 486.022 283.373 486.022 287.24C486.022 289.827 485.556 292.12 484.622 294.12C483.716 296.093 482.449 297.627 480.822 298.72C479.222 299.813 477.422 300.36 475.422 300.36ZM475.582 298.32C479.556 298.32 481.542 294.76 481.542 287.64C481.542 284.173 481.089 281.507 480.182 279.64C479.302 277.773 477.809 276.84 475.702 276.84C473.649 276.84 472.129 277.733 471.142 279.52C470.156 281.28 469.662 283.813 469.662 287.12C469.662 290.507 470.129 293.227 471.062 295.28C472.022 297.307 473.529 298.32 475.582 298.32ZM504.245 300H490.965L489.925 298.2C491.499 295.213 493.432 291.267 495.725 286.36C498.019 281.427 500.072 276.907 501.885 272.8H502.925L506.125 274.52L495.325 295.32L493.725 297.76L504.245 297.2L504.405 289.4L507.805 289.12V297L513.445 296.72V300H507.805V306.44H504.245V300Z" fill="#960D18"/>
<path d="M295.738 800C459.069 800 591.475 776.608 591.475 747.753C591.475 718.898 459.069 695.506 295.738 695.506C132.406 695.506 0 718.898 0 747.753C0 776.608 132.406 800 295.738 800Z" fill="#252525"/>
<path d="M535.875 754.943C558.641 754.943 577.096 736.487 577.096 713.721C577.096 690.954 558.641 672.499 535.875 672.499C513.109 672.499 494.654 690.954 494.654 713.721C494.654 736.487 513.109 754.943 535.875 754.943Z" fill="#1E6BAE"/>
<path d="M51.7661 740.563C74.5319 740.563 92.9872 722.107 92.9872 699.341C92.9872 676.574 74.5319 658.119 51.7661 658.119C29.0003 658.119 10.5449 676.574 10.5449 699.341C10.5449 722.107 29.0003 740.563 51.7661 740.563Z" fill="#7A5800"/>
<path d="M51.766 674.416C68.1786 674.416 81.4836 661.11 81.4836 644.697C81.4836 628.284 68.1786 614.979 51.766 614.979C35.3535 614.979 22.0485 628.284 22.0485 644.697C22.0485 661.11 35.3535 674.416 51.766 674.416Z" fill="#A37500"/>
<path d="M51.766 619.772C63.4137 619.772 72.8559 610.33 72.8559 598.682C72.8559 587.034 63.4137 577.591 51.766 577.591C40.1184 577.591 30.6761 587.034 30.6761 598.682C30.6761 610.33 40.1184 619.772 51.766 619.772Z" fill="#CC9200"/>
<path d="M189.014 314.902C189.014 314.902 166.29 378.866 176.39 401.59C186.489 424.314 202.479 446.196 202.479 446.196C202.479 446.196 196.588 319.11 189.014 314.902Z" fill="#C3C3C3"/>
<path opacity="0.1" d="M189.014 314.902C189.014 314.902 166.29 378.866 176.39 401.59C186.489 424.314 202.479 446.196 202.479 446.196C202.479 446.196 196.588 319.11 189.014 314.902Z" fill="black"/>
<path d="M182.281 709.626C182.281 709.626 159.557 754.232 174.706 755.916C189.855 757.599 195.746 757.599 202.479 750.866C206.16 747.185 213.614 742.246 219.615 738.525C223.171 736.356 226.044 733.228 227.904 729.501C229.764 725.774 230.535 721.598 230.131 717.452C229.687 713.334 228.148 709.942 224.361 709.626C214.262 708.784 202.479 699.526 202.479 699.526L182.281 709.626Z" fill="#071B2C"/>
<path d="M283.664 241.905C303.202 241.905 319.042 226.065 319.042 206.526C319.042 186.987 303.202 171.147 283.664 171.147C264.125 171.147 248.286 186.987 248.286 206.526C248.286 226.065 264.125 241.905 283.664 241.905Z" fill="#FFB8B8"/>
<path d="M260.921 218.151C260.921 218.151 235.651 264.649 233.629 264.649C231.608 264.649 279.115 279.811 279.115 279.811C279.115 279.811 292.255 235.335 294.277 231.291L260.921 218.151Z" fill="#FFB8B8"/>
<path d="M318.885 196.109L319.002 193.405L324.38 194.744C324.322 193.876 324.077 193.031 323.661 192.267C323.245 191.503 322.668 190.839 321.97 190.319L327.699 189.999C322.892 183.168 316.75 177.382 309.645 172.991C302.539 168.599 294.618 165.694 286.358 164.449C273.967 162.653 260.17 165.252 251.673 174.449C247.552 178.909 244.962 184.582 243.12 190.369C239.727 201.028 239.036 213.733 246.11 222.397C253.301 231.203 265.86 232.927 277.176 234.017C281.157 234.401 285.33 234.757 289.019 233.213C289.43 228.981 288.888 224.71 287.434 220.715C286.828 219.478 286.539 218.11 286.591 216.734C287.094 213.367 291.585 212.519 294.958 212.974C298.331 213.429 302.387 214.125 304.604 211.542C306.13 209.762 306.04 207.171 306.242 204.835C306.793 198.476 318.827 197.442 318.885 196.109Z" fill="#252525"/>
<path d="M307.68 742.449C307.68 742.449 284.957 787.056 300.106 788.739C315.254 790.422 321.146 790.422 327.878 783.689C331.559 780.008 339.013 775.07 345.015 771.349C348.571 769.179 351.443 766.052 353.303 762.325C355.163 758.597 355.935 754.421 355.53 750.276C355.086 746.158 353.547 742.765 349.76 742.449C339.661 741.608 327.878 732.35 327.878 732.35L307.68 742.449Z" fill="#071B2C"/>
<path d="M205.004 463.029C205.004 463.029 203.321 479.02 202.479 479.861C201.638 480.703 203.321 482.386 202.479 484.911C201.638 487.436 200.796 490.802 202.479 491.644C204.162 492.486 193.222 566.549 193.222 566.549C193.222 566.549 166.29 601.897 177.231 657.445L180.598 713.834C180.598 713.834 206.687 715.517 206.687 706.259C206.687 706.259 205.004 695.318 205.004 690.268C205.004 685.219 209.212 685.219 206.687 682.694C204.162 680.169 204.163 678.486 204.163 678.486C204.163 678.486 208.371 675.119 207.529 674.277C206.687 673.436 215.103 613.68 215.103 613.68C215.103 613.68 224.361 604.422 224.361 599.372V594.323C224.361 594.323 228.569 583.382 228.569 582.54C228.569 581.698 251.292 530.359 251.292 530.359L260.55 567.391L270.649 620.413C270.649 620.413 275.699 668.386 285.798 686.902C285.798 686.902 303.472 747.499 303.472 745.816C303.472 744.133 332.928 739.924 332.086 732.35C331.245 724.775 314.413 618.73 314.413 618.73L318.621 461.345L205.004 463.029Z" fill="#0F3557"/>
<path d="M327.878 468.92C327.878 468.92 343.869 517.735 330.403 516.051C316.938 514.368 311.046 473.97 311.046 473.97L327.878 468.92Z" fill="#FFB8B8"/>
<path d="M299.685 269.033C299.685 269.033 249.188 241.26 244.139 242.101C239.089 242.943 185.226 290.074 186.068 309.432C186.91 328.789 193.642 360.771 193.642 360.771C193.642 360.771 196.167 449.983 201.217 450.825C206.266 451.667 200.375 466.816 202.058 466.816C203.742 466.816 319.883 466.816 320.725 464.291C321.566 461.766 299.685 269.033 299.685 269.033Z" fill="#C3C3C3"/>
<path d="M284.957 266.088C284.957 266.088 253.817 272.821 258.867 314.902C263.917 356.983 273.174 399.065 273.174 399.065L304.314 467.237L307.68 479.861L330.403 473.97L313.571 376.341C313.571 376.341 307.68 271.979 300.106 268.612C295.329 266.576 290.135 265.71 284.957 266.088Z" fill="#C3C3C3"/>
<path opacity="0.1" d="M266.02 397.803L304.734 466.816L272.117 394.095L266.02 397.803Z" fill="black"/>
</g>
<defs>
<clipPath id="clip0">
<rect width="764.508" height="800" fill="white"/>
</clipPath>
</defs>
</svg>
